<svg xmlns="http://www.w3.org/2000/svg" width="42.81" height="30.791" viewBox="0 0 42.81 30.791">
  <path id="Trazado_1025" data-name="Trazado 1025" d="M1096.44,2718.55a18.106,18.106,0,0,0-10.3-3.85l-.52.59c6.04,1.85,8.94,4.48,9.12,4.65a29.908,29.908,0,0,0-11.02-3.51,31.327,31.327,0,0,0-7.4.07,3.4,3.4,0,0,0-.62.08,27.632,27.632,0,0,0-8.32,2.31c-1.27.58-2.06,1.01-2.15,1.05.18-.18,3.23-2.95,9.62-4.79l-.36-.44a18.124,18.124,0,0,0-10.3,3.85,49.076,49.076,0,0,0-5.27,21.35s3.08,5.31,11.18,5.57c0,0,1.35-1.65,2.46-3.04a11.506,11.506,0,0,1-6.41-4.31c.06.04.42.28,1.02.62a.484.484,0,0,0,.15.11c.11.07.22.11.33.18a21.6,21.6,0,0,0,2.67,1.24,31.237,31.237,0,0,0,5.39,1.58,25.5,25.5,0,0,0,9.49.04,23.8,23.8,0,0,0,5.32-1.57,21.36,21.36,0,0,0,4.21-2.16,11.6,11.6,0,0,1-6.62,4.35c1.1,1.39,2.41,2.97,2.41,2.97,8.09-.26,11.21-5.57,11.21-5.57A49.231,49.231,0,0,0,1096.44,2718.55Zm-22.98,17.95a4.085,4.085,0,1,1,3.74-4.07A3.923,3.923,0,0,1,1073.46,2736.5Zm13.38,0a4.085,4.085,0,1,1,3.74-4.07A3.931,3.931,0,0,1,1086.84,2736.5Z" transform="translate(-1058.92 -2714.7)" fill="#fff"/>
</svg>
