<svg xmlns="http://www.w3.org/2000/svg" width="32.889" height="32.889" viewBox="0 0 32.889 32.889">
  <path id="Trazado_3_11_" d="M810.74,2716.59a51.492,51.492,0,0,1,6.57.18,8.41,8.41,0,0,1,3.1.55,6.4,6.4,0,0,1,3.1,3.1,8.413,8.413,0,0,1,.55,3.1c0,1.64.18,2.19.18,6.57a51.494,51.494,0,0,1-.18,6.57,8.413,8.413,0,0,1-.55,3.1,6.4,6.4,0,0,1-3.1,3.1,8.415,8.415,0,0,1-3.1.55c-1.64,0-2.19.18-6.57.18a51.492,51.492,0,0,1-6.57-.18,8.41,8.41,0,0,1-3.1-.55,6.4,6.4,0,0,1-3.1-3.1,8.413,8.413,0,0,1-.55-3.1c0-1.64-.18-2.19-.18-6.57a51.494,51.494,0,0,1,.18-6.57,8.413,8.413,0,0,1,.55-3.1,6.445,6.445,0,0,1,1.28-1.82,3.123,3.123,0,0,1,1.82-1.28,8.415,8.415,0,0,1,3.1-.55,51.491,51.491,0,0,1,6.57-.18m0-2.92a54.294,54.294,0,0,0-6.75.18,11.209,11.209,0,0,0-4.01.73,7.657,7.657,0,0,0-4.75,4.74,8.38,8.38,0,0,0-.73,4.01,126.658,126.658,0,0,0,0,13.5,11.209,11.209,0,0,0,.73,4.01,7.18,7.18,0,0,0,1.82,2.92,7.078,7.078,0,0,0,2.92,1.82,11.209,11.209,0,0,0,4.01.73,126.7,126.7,0,0,0,13.5,0,11.209,11.209,0,0,0,4.01-.73,7.642,7.642,0,0,0,4.74-4.74,11.209,11.209,0,0,0,.73-4.01c0-1.82.18-2.37.18-6.75a54.294,54.294,0,0,0-.18-6.75,11.209,11.209,0,0,0-.73-4.01,7.18,7.18,0,0,0-1.82-2.92,7.078,7.078,0,0,0-2.92-1.82,11.432,11.432,0,0,0-4.01-.73,54.129,54.129,0,0,0-6.74-.18m0,8.03a8.249,8.249,0,0,0-8.39,8.12v.27a8.39,8.39,0,1,0,8.39-8.39h0m0,13.86a5.372,5.372,0,0,1-5.47-5.27v-.2a5.372,5.372,0,0,1,5.27-5.47h.2a5.372,5.372,0,0,1,5.47,5.27v.2a5.372,5.372,0,0,1-5.27,5.47h-.2m8.76-16.23a2.01,2.01,0,1,0,2.01,2.01h0a2.023,2.023,0,0,0-2.01-2.01" transform="translate(-794.286 -2713.635)" fill="#fff" fill-rule="evenodd"/>
</svg>
