<svg xmlns="http://www.w3.org/2000/svg" width="32.83" height="26.642" viewBox="0 0 32.83 26.642">
  <path id="Trazado_2_11_" d="M908.26,2744.41a18.984,18.984,0,0,0,19.15-18.81v-1.25a14.818,14.818,0,0,0,3.28-3.47,14.988,14.988,0,0,1-3.83,1.09,7.067,7.067,0,0,0,2.92-3.65,16.738,16.738,0,0,1-4.19,1.64,6.52,6.52,0,0,0-4.93-2.19,6.866,6.866,0,0,0-6.75,6.75,3.628,3.628,0,0,0,.18,1.46,18.872,18.872,0,0,1-13.86-7.11,7.025,7.025,0,0,0-.91,3.47,7.284,7.284,0,0,0,2.92,5.66,6.154,6.154,0,0,1-3.1-.91h0a6.679,6.679,0,0,0,5.47,6.57,5.586,5.586,0,0,1-1.82.18,3.112,3.112,0,0,1-1.28-.18,6.9,6.9,0,0,0,6.38,4.74,13.8,13.8,0,0,1-8.39,2.92,5.046,5.046,0,0,1-1.64-.18,17.366,17.366,0,0,0,10.4,3.27" transform="translate(-897.86 -2717.77)" fill="#fff" fill-rule="evenodd"/>
</svg>
